<svg id="Layer_1" data-name="Layer 1" xmlns="http://www.w3.org/2000/svg" viewBox="0 0 1073.92 1073.45"><defs><style>.cls-1{fill:#fff;}</style></defs><path class="cls-1" d="M3.13,539.49Q3.13,312,3,84.52c0-25,8-46.13,27.18-62.46A76.48,76.48,0,0,1,81,3.32q458.66-.09,917.31,0c43.12,0,76.9,32.67,78.47,75.86.06,1.58.11,3.16.11,4.74q0,455.49,0,911c0,32.2-13.38,56.49-41.41,72.37a72.8,72.8,0,0,1-36.31,9.48q-459.43,0-918.89,0c-41.18,0-76.16-34.17-77-75.41-.41-20.37-.22-40.76-.22-61.15Q3.11,739.83,3.13,539.49ZM572.68,406.13l.07-.13c-1.58-1.66-3.64-.94-5.48-.94q-70-.06-139.94,0c-1.81,0-3.9-.81-5.4,1h0c-1.75,1.32-1.05,3.23-1.05,4.88q0,250.83,0,501.66c0,1.62-.82,3.58,1.15,4.78,50.44,0,100.88,0,151.31.21,5.09,0,6.72-.9,6.71-6.46Q579.74,787,580,662.84c0-13.59.06-27.17,2.06-40.74,2.45-16.5,6-32.53,13.91-47.33s18.75-26.62,34.09-33.22c21-9,42.94-11,65.52-6.91,28.23,5.15,45.38,22.33,54.28,48.8,6.06,18,7.66,36.78,8.56,55.61,0,.35-.1.7-.1,1.05q0,136.53,0,273c0,1.47-.67,3.24,1.16,4.26,51.11,0,102.21,0,153.31.23,5,0,5.89-1.53,5.88-6.12q-.2-135.93-.11-271.85c0-7.55-.18-15.1-.28-22.64.22-.66-.16-1-.67-1.24,0-12.9-1-25.74-2.08-38.6A350.23,350.23,0,0,0,909,531.07c-6.71-30.87-17.63-59.79-38.54-84.35A135.22,135.22,0,0,0,826.62,413C797.51,398.66,766,394.69,734,393.46c-11.5-.45-22.93.64-34.36,2a167.13,167.13,0,0,0-90.36,39.66C597,445.82,586.49,457.74,578.56,472c-.84,1.52-1,4.31-3.73,3.52-2.34-.68-1.18-3-1.18-4.55-.12-21.25-.14-42.5-.18-63.76C573.67,406.49,573.31,406.21,572.68,406.13ZM321,662.36q0-125.46.11-250.91c0-4.7-1.25-5.81-5.85-5.79q-73.53.25-147.07,0c-4.6,0-5.79,1.06-5.79,5.75q.19,250.38,0,500.77c0,4.43,1.15,5.45,5.49,5.43q73.28-.24,146.54,0c5.11,0,6.72-.94,6.7-6.47Q320.83,786.77,321,662.36ZM149.86,244.66c1.4,54.64,44.6,91.92,92.21,91.36,52.16-.62,95.39-40.91,92.15-98.82-2.65-47.54-42-86.64-93.55-86.16C188.37,151.52,149.13,194.81,149.86,244.66Z" transform="translate(-3.04 -3.27)"/></svg>